<svg xmlns="http://www.w3.org/2000/svg" width="43" height="42"><path fill="#a3bbc8" d="M12.903 32.695c0-1.313.296-2.56.825-3.67L.51 8.577a.918.918 0 01.115-1.14L6.943 1.02a.885.885 0 01.631-.266H34.92c.237 0 .464.096.631.266l6.319 6.418a.92.92 0 01.115 1.14l-13.22 20.446a8.53 8.53 0 01.824 3.67c0 4.673-3.743 8.475-8.342 8.475-4.6 0-8.344-3.802-8.344-8.475zm1.785 0c0 3.674 2.942 6.662 6.559 6.662 3.615 0 6.557-2.988 6.557-6.662 0-3.672-2.942-6.661-6.557-6.661-3.617 0-6.559 2.989-6.559 6.661zm8.549-8.23a8.344 8.344 0 014.477 2.884l11.87-18.362h-6.339zm-8.458 2.883a8.347 8.347 0 014.477-2.883L9.247 8.987H2.91zm6.454-3.127h.027l9.85-15.234H11.382zM3.41 7.174h35.674l-4.535-4.606H7.943zm17.247 28.919V31.19h-.526a.9.9 0 01-.892-.906.9.9 0 01.892-.908h1.419a.9.9 0 01.892.908v5.808a.9.9 0 01-.892.906.9.9 0 01-.893-.906z"/></svg>