<svg xmlns="http://www.w3.org/2000/svg" width="37" height="38"><path fill="#a3bbc8" d="M1.975 37.96a1.985 1.985 0 01-1.973-1.99V8.69c0-.24.095-.472.264-.643L7.742.506a.898.898 0 01.639-.267h19.091c1.087 0 1.972.893 1.972 1.991v2.873c0 .502-.404.91-.902.91a.907.907 0 01-.902-.91V2.23a.169.169 0 00-.168-.17H9.284v5.552c0 1.097-.886 1.99-1.974 1.99H1.807V35.97c0 .093.076.17.168.17h25.497a.17.17 0 00.168-.17V22.067c0-.502.404-.91.902-.91s.902.408.902.91V35.97a1.985 1.985 0 01-1.973 1.991zM3.083 7.782H7.31a.17.17 0 00.168-.17V3.347zM7.06 31.49a.907.907 0 01-.901-.91c0-.503.404-.91.901-.91H11l1.394-5.066a.908.908 0 01.231-.4l.014-.015H7.06a.906.906 0 01-.901-.91c0-.503.404-.91.901-.91h7.384l5.432-5.48H7.059a.906.906 0 01-.901-.91c0-.504.404-.911.901-.911H21.68l8.429-8.503a3.037 3.037 0 014.318 0l1.062 1.07a3.102 3.102 0 010 4.357l-17.485 17.64a.907.907 0 01-.396.234L11.91 31.46c-.028.007-.226.03-.226.03zm5.923-2.218l2.652-.744-1.916-1.933zm1.556-4.424l2.827 2.853L31.8 13.14l-2.828-2.852zM31.384 7.852l-1.136 1.147 2.828 2.853 1.136-1.147a1.27 1.27 0 000-1.782L33.15 7.852a1.24 1.24 0 00-1.766 0z"/></svg>