<svg xmlns="http://www.w3.org/2000/svg" width="44" height="40"><path fill="#a3bbc8" d="M43.132 15.8c0 3.151-2.298 5.759-5.263 6.153v7.126a2.18 2.18 0 01-1.051 1.887 2.092 2.092 0 01-1.08.304c-.359 0-.718-.094-1.047-.283-5.96-3.423-12.407-5.52-19.185-6.244l4.159 11.785c.235.663.14 1.406-.255 1.986a2.099 2.099 0 01-1.73.925h-4.86a2.123 2.123 0 01-1.986-1.428l-4.84-13.723a3.342 3.342 0 01-1.92-2.664h-1.36c-1.49 0-2.701-1.244-2.701-2.774v-6.096c0-1.53 1.212-2.774 2.701-2.774h1.36c.191-1.658 1.567-2.949 3.232-2.949 0 0 6.628-.03 6.684-.034 7.333-.558 14.298-2.706 20.7-6.383a2.07 2.07 0 012.127.021 2.179 2.179 0 011.052 1.887v7.126c2.964.394 5.262 3.002 5.262 6.152zm-39.08-3.68H2.715a.627.627 0 00-.618.634v6.096c0 .35.278.634.618.634h1.337zm3.18 10.31l5.745.003V9.171h-5.67c-.646 0-1.171.54-1.171 1.203V21.23c0 .489.285.91.693 1.098.15.066.195.076.403.101zm5.997 2.143H8.31l4.484 12.708a.03.03 0 00.027.018h4.858c.009 0 .015 0 .024-.013.01-.013.007-.02.004-.028zM35.786 2.522c0-.016 0-.028-.022-.041-.026-.016-.043-.007-.056 0-6.403 3.678-13.345 5.885-20.648 6.571V22.55c7.303.684 14.245 2.892 20.648 6.57.013.007.03.016.056 0 .022-.013.022-.026.022-.041zM41.05 15.8c0-1.968-1.369-3.614-3.18-3.987v7.974c1.811-.373 3.18-2.019 3.18-3.987z"/></svg>