<svg xmlns="http://www.w3.org/2000/svg" width="73" height="52"><path fill="#a3bbc8" d="M55.5 17.625c9.32 0 16.875 7.555 16.875 16.875S64.82 51.375 55.5 51.375 38.625 43.82 38.625 34.5 46.18 17.625 55.5 17.625z"/><path fill="#243f4d" d="M64 22.112v10.561c0 .547-.449.99-1.002.99h-3.276l.002.066c0 3.458-2.847 6.27-6.346 6.27-3.5 0-6.347-2.812-6.347-6.27l.002-.066H24.449l.002.066c0 3.458-2.847 6.27-6.347 6.27-3.499 0-6.346-2.812-6.346-6.27l.002-.066H6.347c-1.142 0-2.071-.918-2.071-2.046v-2.179H1.002A.996.996 0 010 28.448c0-.547.449-.99 1.002-.99h9.62a.996.996 0 011.002.99c0 .547-.449.99-1.002.99H6.28v2.179c0 .036.03.066.066.066h5.76a6.351 6.351 0 015.998-4.225 6.351 6.351 0 015.998 4.225h20.791v-7.459c0-.547.449-.99 1.002-.99a.996.996 0 011.002.99v7.46h.483a6.351 6.351 0 015.998-4.225 6.351 6.351 0 015.997 4.224h2.62v-4.356H60.86c-1.732 0-3.14-1.392-3.14-3.103v-2.112c0-.547.449-.99 1.002-.99h3.116a3.275 3.275 0 00-3.114-2.244H46.898V20c0 .547-.45.99-1.003.99a.996.996 0 01-1.002-.99V2.046a.066.066 0 00-.066-.066H6.347a.066.066 0 00-.067.066V20c0 .547-.45.99-1.002.99A.996.996 0 014.275 20V2.046C4.275.918 5.205 0 6.346 0h38.48c1.143 0 2.072.918 2.072 2.046v2.178h7.549c2.32 0 4.208 1.866 4.208 4.159v1.056c0 .476-.34.873-.793.968l1.658 6.55c2.533.381 4.48 2.547 4.48 5.155zM46.898 8.449h9.753v-.066c0-1.201-.989-2.179-2.204-2.179h-7.55zm0 8.449h10.54l-1.636-6.47h-8.904zm-24.451 16.83c0-2.366-1.948-4.29-4.343-4.29-2.394 0-4.342 1.924-4.342 4.29s1.948 4.29 4.342 4.29c2.395 0 4.343-1.924 4.343-4.29zm35.273 0c0-2.366-1.948-4.29-4.342-4.29-2.395 0-4.343 1.924-4.343 4.29s1.948 4.29 4.343 4.29c2.394 0 4.342-1.924 4.342-4.29zm4.276-8.383v-2.244h-2.272v1.122c0 .619.51 1.122 1.136 1.122zm-41.82 8.383c0 1.129-.93 2.047-2.072 2.047s-2.07-.918-2.07-2.047c0-1.128.928-2.046 2.07-2.046s2.071.918 2.071 2.046zm35.273 0c0 1.129-.93 2.047-2.071 2.047-1.142 0-2.071-.918-2.071-2.047 0-1.128.929-2.046 2.07-2.046 1.143 0 2.072.918 2.072 2.046zm-12.827-5.28c0 .547-.449.99-1.002.99H26.655a.996.996 0 01-1.002-.99c0-.547.45-.99 1.002-.99H41.62a.996.996 0 011.002.99zM16.97 24.224c0 .547-.45.99-1.002.99H3.14a.996.996 0 01-1.002-.99c0-.547.448-.99 1.002-.99h12.827a.996.996 0 011.002.99zm17.877-13.03l-9.62 9.506a1.007 1.007 0 01-1.417 0l-5.344-5.28a.982.982 0 010-1.401 1.011 1.011 0 011.417 0l4.636 4.58 8.911-8.804a1.01 1.01 0 011.417 0 .982.982 0 010 1.4z"/></svg>