<svg xmlns="http://www.w3.org/2000/svg" width="79" height="64"><path fill="#a3bbc8" d="M61.5 29.625c9.32 0 16.875 7.555 16.875 16.875S70.82 63.375 61.5 63.375 44.625 55.82 44.625 46.5 52.18 29.625 61.5 29.625z"/><path fill="#243f4d" d="M55.703 57.382l-4.292 4.247c-1.596 1.579-3.856 2.37-6.633 2.37-2.5 0-5.419-.64-8.652-1.926-6.528-2.596-13.671-7.536-20.112-13.91C9.573 41.789 4.58 34.72 1.957 28.26c-2.742-6.753-2.583-12.125.45-15.125l4.291-4.247a4.698 4.698 0 013.962-1.34 4.396 4.396 0 013.263 2.189l6.518 11.467a4.49 4.49 0 01-.75 5.4l-4.069 4.026c-.833.826-.937 2.146-.241 3.073a73.672 73.672 0 007.078 8.082 73.962 73.962 0 008.167 7.004c.937.689 2.271.586 3.105-.239l4.07-4.027a4.61 4.61 0 015.456-.741l11.588 6.45a4.351 4.351 0 012.212 3.23c.2 1.442-.294 2.87-1.354 3.92zm-.797-3.629a2.22 2.22 0 00-1.125-1.65l-11.588-6.45a2.415 2.415 0 00-2.858.389l-1.937 1.916 1.904 1.028c.526.283.72.936.433 1.456a1.087 1.087 0 01-1.472.429l-2.464-1.33-.533.528c-1.59 1.572-4.14 1.763-5.934.444a76.142 76.142 0 01-8.407-7.21 75.827 75.827 0 01-7.286-8.32c-1.333-1.774-1.14-4.299.449-5.871l.533-.528-5.387-9.773a1.068 1.068 0 01.433-1.457 1.091 1.091 0 011.472.429l5.082 9.219 1.936-1.917a2.351 2.351 0 00.393-2.828L12.032 10.79a2.244 2.244 0 00-1.668-1.113 2.507 2.507 0 00-2.131.73l-.75.741 1.344 2.44c.287.52.093 1.172-.433 1.457a1.09 1.09 0 01-1.472-.43l-1.04-1.884-1.941 1.922c-2.344 2.32-2.333 6.988.03 12.807 2.517 6.198 7.339 13.01 13.577 19.185 6.239 6.173 13.124 10.945 19.387 13.435 5.88 2.339 10.597 2.35 12.941.03l1.943-1.922-9.319-5.03a1.068 1.068 0 01-.433-1.457c.287-.52.946-.712 1.472-.428l9.88 5.332.75-.742c.575-.57.844-1.339.737-2.11zm-1.796-25.19a1.08 1.08 0 01-1.085 1.074h-1.23v3.508a1.08 1.08 0 01-1.085 1.073 1.08 1.08 0 01-1.085-1.073v-3.508h-7.017c-.33 0-.64-.148-.847-.402a1.065 1.065 0 01-.213-.905l2.315-10.309c.13-.578.71-.944 1.295-.815.585.128.954.703.824 1.281l-2.021 9.002h5.664v-9.235a1.08 1.08 0 011.085-1.074c.6 0 1.085.481 1.085 1.074v9.235h1.23c.6 0 1.085.48 1.085 1.074zm-13.89 4.582a1.08 1.08 0 01-1.085 1.073h-9.26c-.599 0-1.085-.48-1.085-1.073 0-3.283 2.685-4.733 5.054-6.012 2.617-1.414 4.206-2.43 4.206-4.624 0-1.754-1.59-3.18-3.544-3.18-1.955 0-3.545 1.426-3.545 3.18a1.08 1.08 0 01-1.085 1.074 1.08 1.08 0 01-1.085-1.074c0-2.938 2.563-5.329 5.715-5.329 3.151 0 5.715 2.39 5.715 5.329 0 3.627-2.96 5.225-5.337 6.509-1.927 1.04-3.263 1.822-3.735 3.053h7.987c.599 0 1.085.48 1.085 1.074zm23.13 12.388a1.075 1.075 0 01-.852 1.264l-5.787 1.145a1.093 1.093 0 01-.98-.293 1.067 1.067 0 01-.297-.97l1.157-5.727c.118-.582.69-.96 1.277-.843.588.116.969.682.851 1.264l-.483 2.393c4.845-4.549 7.594-10.831 7.594-17.494 0-13.303-10.937-24.125-24.38-24.125-7.922 0-15.38 3.833-19.947 10.252a1.093 1.093 0 01-1.512.26 1.067 1.067 0 01-.262-1.496C23.702 4.173 31.823-.001 40.45-.001 55.09 0 67 11.786 67 26.272c0 7.151-2.906 13.901-8.041 18.837l2.113-.418a1.086 1.086 0 011.277.842zM41.535 5.655v2.29A1.08 1.08 0 0140.45 9.02a1.08 1.08 0 01-1.085-1.074V5.655a1.08 1.08 0 011.085-1.074c.6 0 1.085.48 1.086 1.074zM62.37 26.272a1.08 1.08 0 01-1.085 1.074H58.97c-.6 0-1.085-.48-1.085-1.074a1.08 1.08 0 011.085-1.074h2.315c.6 0 1.085.481 1.085 1.074zm-37.018-8.626a1.087 1.087 0 01-1.483.393l-2.004-1.146a1.067 1.067 0 01-.397-1.466c.3-.514.963-.69 1.482-.393l2.005 1.145c.519.296.696.953.397 1.467zm34.081 19.471a1.087 1.087 0 01-1.482.393l-2.005-1.145a1.068 1.068 0 01-.397-1.467c.3-.513.963-.69 1.482-.393l2.005 1.146c.52.296.697.953.397 1.466zM51.808 8.954l-1.158 1.984a1.087 1.087 0 01-1.482.393 1.068 1.068 0 01-.397-1.467l1.157-1.984c.3-.513.963-.69 1.482-.393.52.297.697.954.398 1.467zM32.13 42.68l-1.157 1.984a1.087 1.087 0 01-1.482.393 1.068 1.068 0 01-.398-1.467l1.158-1.984c.3-.513.963-.69 1.482-.393.52.297.697.953.397 1.467zm26.906-25.786l-2.004 1.145a1.086 1.086 0 01-1.482-.393c-.3-.514-.123-1.17.396-1.467l2.005-1.145a1.091 1.091 0 011.482.393c.3.513.122 1.17-.397 1.467zM24.955 36.365l-2.005 1.146a1.087 1.087 0 01-1.482-.393c-.3-.514-.122-1.17.397-1.467l2.004-1.146a1.091 1.091 0 011.483.393c.3.514.122 1.17-.397 1.467zm6.778-25.034a1.089 1.089 0 01-1.482-.393l-1.157-1.984c-.3-.513-.122-1.17.397-1.466a1.091 1.091 0 011.482.392l1.157 1.984c.3.514.122 1.17-.397 1.467zM51.41 45.057a1.087 1.087 0 01-1.482-.393l-1.157-1.984c-.3-.514-.122-1.17.397-1.467a1.091 1.091 0 011.482.393l1.157 1.984c.3.514.122 1.17-.397 1.467z"/></svg>