<svg xmlns="http://www.w3.org/2000/svg" width="61" height="64"><path fill="#a3bbc8" d="M43.5 29.625c9.32 0 16.875 7.555 16.875 16.875S52.82 63.375 43.5 63.375 26.625 55.82 26.625 46.5 34.18 29.625 43.5 29.625z"/><path fill="#243f4d" d="M32.59 9.366a.994.994 0 01-1.341.445c-6.198-3.161-13.663-1.952-18.577 3.008-5.71 5.765-6.283 14.957-1.331 21.38.339.44.26 1.073-.175 1.415a.99.99 0 01-1.401-.177c-5.57-7.224-4.927-17.56 1.495-24.043 5.525-5.578 13.92-6.937 20.89-3.382.492.25.689.857.44 1.354zm4.18 27.78A17.941 17.941 0 0124 42.475c-3.887 0-7.787-1.26-11.047-3.821a1.014 1.014 0 01-.174-1.415.992.992 0 011.4-.176c6.364 4.999 15.469 4.42 21.18-1.344a16.276 16.276 0 002.982-18.75 1.012 1.012 0 01.44-1.353.994.994 0 011.342.445 18.302 18.302 0 01-3.352 21.083zm.686-23.5a.99.99 0 01-1.41-.088 16.74 16.74 0 00-1.42-1.433 1.014 1.014 0 01-.086-1.423.991.991 0 011.409-.088 18.492 18.492 0 011.594 1.61 1.014 1.014 0 01-.087 1.422zm8.812 14.605a1.43 1.43 0 00-.188.958l.391 2.513a3.433 3.433 0 01-1.36 3.31l-2.035 1.494c-.27.198-.46.486-.54.813l-.592 2.473a3.403 3.403 0 01-2.506 2.53l-.984.24 6.927 15.6c.147.331.107.717-.107 1.01a.995.995 0 01-.922.403l-5.572-.672-3.21 4.645a.996.996 0 01-1.73-.164L26.76 47.46l-.928.572a3.373 3.373 0 01-1.77.503 3.372 3.372 0 01-1.77-.503l-.897-.552-7.071 15.924a1 1 0 01-.912.596.996.996 0 01-.818-.432l-3.21-4.645-5.571.672a.994.994 0 01-.923-.404 1.015 1.015 0 01-.107-1.01l6.924-15.59-1.023-.25a3.403 3.403 0 01-2.505-2.53l-.593-2.473a1.418 1.418 0 00-.539-.813l-2.036-1.494a3.434 3.434 0 01-1.359-3.31l.392-2.512a1.43 1.43 0 00-.188-.958L.542 26.077a3.448 3.448 0 010-3.575l1.314-2.175a1.43 1.43 0 00.188-.958l-.392-2.512a3.433 3.433 0 011.36-3.31l2.036-1.495c.27-.197.46-.486.539-.812l.593-2.474a3.404 3.404 0 012.505-2.53l2.45-.598c.324-.079.61-.272.806-.543l1.48-2.056a3.372 3.372 0 013.28-1.371l2.487.395c.329.052.666-.015.95-.19L22.29.547a3.361 3.361 0 013.541 0l2.155 1.326c.283.175.62.242.949.19l2.488-.395a3.372 3.372 0 013.279 1.372l1.481 2.055c.196.272.482.465.805.544l2.45.599a3.404 3.404 0 012.506 2.53l.593 2.473c.078.326.27.615.538.812l2.036 1.495a3.434 3.434 0 011.36 3.31l-.392 2.511a1.43 1.43 0 00.188.958l1.313 2.175a3.448 3.448 0 010 3.575zM19.634 46.518a1.384 1.384 0 00-.447-.003l-2.488.395a3.38 3.38 0 01-.997.01l-3.309 7.45a.998.998 0 01-1.32.507 1.012 1.012 0 01-.502-1.331l3.32-7.478a3.442 3.442 0 01-.47-.53l-1.482-2.055a1.398 1.398 0 00-.304-.307L5.327 57.382l4.415-.533a.994.994 0 01.937.425l2.544 3.681zm16.885-3.365c-.128.09-.243.201-.336.33l-1.48 2.056a3.5 3.5 0 01-.443.501l3.333 7.506c.226.507 0 1.104-.502 1.332a.999.999 0 01-1.32-.507l-3.31-7.457c-.339.05-.688.052-1.038-.003l-2.487-.395a1.384 1.384 0 00-.408-.004l6.414 14.443 2.543-3.681a.995.995 0 01.938-.425l4.415.533zm9.357-19.602l-1.313-2.174a3.464 3.464 0 01-.456-2.321l.392-2.511a1.417 1.417 0 00-.561-1.367l-2.036-1.495a3.438 3.438 0 01-1.305-1.969l-.593-2.473a1.405 1.405 0 00-1.034-1.044l-2.45-.6a3.402 3.402 0 01-1.95-1.316l-1.482-2.056a1.392 1.392 0 00-1.353-.566l-2.489.395a3.375 3.375 0 01-2.299-.46l-2.155-1.326a1.387 1.387 0 00-1.461 0l-2.154 1.326a3.375 3.375 0 01-2.3.46l-2.487-.395a1.391 1.391 0 00-1.354.566l-1.48 2.055a3.403 3.403 0 01-1.951 1.317l-2.45.599c-.514.125-.91.525-1.035 1.044l-.593 2.473a3.44 3.44 0 01-1.304 1.97l-2.037 1.494a1.418 1.418 0 00-.56 1.367l.39 2.512a3.463 3.463 0 01-.455 2.32l-1.314 2.175a1.423 1.423 0 000 1.476L3.561 27.2c.419.694.58 1.519.455 2.321l-.391 2.512a1.417 1.417 0 00.56 1.366l2.036 1.495a3.438 3.438 0 011.305 1.97l.593 2.472c.125.519.521.919 1.035 1.044l2.45.599a3.41 3.41 0 011.95 1.317l1.481 2.056c.312.432.83.65 1.354.566l2.488-.395a3.376 3.376 0 012.3.46l2.154 1.326c.45.278 1.01.278 1.462 0l2.154-1.326a3.378 3.378 0 012.299-.46l2.488.395a1.392 1.392 0 001.353-.566l1.481-2.055a3.402 3.402 0 011.95-1.317l2.45-.599c.514-.125.91-.525 1.035-1.044l.593-2.473a3.44 3.44 0 011.305-1.969l2.036-1.495c.429-.315.644-.838.561-1.366l-.391-2.512a3.465 3.465 0 01.456-2.321l1.314-2.175a1.423 1.423 0 000-1.476zm-10.622-.498l-4.441 4.146 1.179 5.99a1.812 1.812 0 01-.71 1.83 1.773 1.773 0 01-1.941.115l-5.28-2.983-5.279 2.983a1.793 1.793 0 01-.883.235c-.371 0-.74-.118-1.058-.351a1.811 1.811 0 01-.71-1.828l1.18-5.99-4.442-4.147a1.815 1.815 0 01-.491-1.9 1.79 1.79 0 011.503-1.246l6.008-.719 2.534-5.546a1.786 1.786 0 011.639-1.058c.712 0 1.34.406 1.638 1.058l2.534 5.546 6.008.72a1.79 1.79 0 011.503 1.245c.22.684.032 1.412-.49 1.9zm-1.662-1.194l-6.148-.736a.999.999 0 01-.79-.578l-2.592-5.675-2.593 5.675a.999.999 0 01-.79.578l-6.148.736 4.545 4.243c.255.239.37.593.302.937l-1.207 6.13 5.403-3.053a.991.991 0 01.975 0l5.403 3.053-1.207-6.13a1.015 1.015 0 01.302-.937z"/></svg>