<svg id="address" xmlns="http://www.w3.org/2000/svg" viewBox="2 1.999 31 44.001"><path d="M16.597 45.81l-6.584-2.918-5.674 2.51a1.652 1.652 0 0 1-1.864-.355c-.49-.5-.613-1.23-.313-1.862l4.994-10.516a1.107 1.107 0 0 1 1.986-.023c.165.332.148.707-.014 1.01L4.785 42.8l4.32-1.914a2.227 2.227 0 0 1 1.806.001l6.583 2.916h.011l6.585-2.917a2.222 2.222 0 0 1 1.804 0l4.32 1.914-4.342-9.145a1.093 1.093 0 0 1 .174-1.275 1.107 1.107 0 0 1 1.798.288l4.994 10.518c.3.63.177 1.36-.313 1.86-.49.501-1.222.641-1.863.356l-5.665-2.51-6.594 2.917a2.22 2.22 0 0 1-1.806 0zm-1.947-7.6L5.102 22.283A13.892 13.892 0 0 1 3.54 15.81c.023-3.642 1.464-7.083 4.06-9.689a13.903 13.903 0 0 1 9.702-4.12 13.897 13.897 0 0 1 9.999 4 13.76 13.76 0 0 1 4.158 9.893 13.691 13.691 0 0 1-1.562 6.39L20.349 38.21a3.293 3.293 0 0 1-2.849 1.61 3.294 3.294 0 0 1-2.85-1.61zm2.683-34.012C10.983 4.285 5.785 9.5 5.747 15.823a11.525 11.525 0 0 0 1.269 5.366l9.53 15.896c.29.487.764.54.954.54.19 0 .663-.053.955-.54l9.528-15.896a11.526 11.526 0 0 0 1.27-5.295 11.59 11.59 0 0 0-3.501-8.33 11.694 11.694 0 0 0-8.42-3.366zm-4.884 11.696c0-2.772 2.266-5.026 5.051-5.026s5.05 2.254 5.05 5.026c0 2.773-2.265 5.027-5.05 5.027-2.785 0-5.05-2.254-5.05-5.027zm2.206 0a2.842 2.842 0 0 0 2.845 2.832 2.84 2.84 0 0 0 2.844-2.832 2.84 2.84 0 0 0-2.844-2.83 2.841 2.841 0 0 0-2.845 2.83z"/></svg>
