 <svg id="email" xmlns="http://www.w3.org/2000/svg" viewBox="2 1.918 36.999 34"><path d="M2.975 35.918a.958.958 0 0 1-.67-.272.93.93 0 0 1-.277-.659L2 14.786v-.017a.927.927 0 0 1 .41-.754L7.73 10.4V6.56a.94.94 0 0 1 .949-.932h6.067l5.217-3.546a.96.96 0 0 1 1.079.001l5.185 3.545h6.093a.94.94 0 0 1 .947.932v3.882l5.297 3.621c.19.13.316.315.373.519.021.046.034.13.034.184l.028 20.17a.94.94 0 0 1-.946.933l-35.077.048zm2.773-1.867l29.478-.041-14.712-11.224L5.748 34.05zm-1.828-.965l11.443-8.73-11.466-7.793.023 16.523zm21.72-8.748L37.1 33.082l-.023-16.565-11.438 7.821zM9.626 18.19l7.308 4.968 3-2.288a.96.96 0 0 1 1.16 0l2.977 2.272 7.301-4.993V7.493H9.626V18.19zm-5.013-3.408l3.118 2.12v-4.24l-3.118 2.12zm28.654 2.072l3.028-2.07-3.028-2.07v4.14zM18.08 5.629h4.828L20.5 3.984 18.08 5.63zm-3.994 12.303a.94.94 0 0 1-.948-.933.94.94 0 0 1 .948-.932h12.83a.94.94 0 0 1 .946.932.94.94 0 0 1-.946.933h-12.83zm0-4.847a.94.94 0 0 1-.948-.932.94.94 0 0 1 .948-.932h12.83a.94.94 0 0 1 .946.932.94.94 0 0 1-.946.932h-12.83z"/></svg>