<svg id="google" xmlns="http://www.w3.org/2000/svg" viewBox="2 2 22.692 14.361"><path d="M8.751 16.35c-1.409-.083-2.69-.525-3.823-1.36-1.462-1.078-2.383-2.515-2.77-4.29a6.496 6.496 0 0 1-.138-1.933 7.044 7.044 0 0 1 1.62-4.102C4.658 3.415 5.955 2.6 7.505 2.207a5.8 5.8 0 0 1 1.19-.186C8.922 2.013 9.15 2 9.378 2a6.741 6.741 0 0 1 3.398.932c.7.4 1.098.808 1.27.932-.717.705-1.405 1.395-2.108 2.086-.522-.45-1.099-.863-2.099-1.016a4.322 4.322 0 0 0-.613-.044c-2.007 0-3.688 1.45-4.136 3.353a3.941 3.941 0 0 0-.1 1.298c.153 1.768 1.336 3.218 2.935 3.736.407.128.83.189 1.254.189.1 0 .198-.003.298-.01.753-.048 1.458-.248 2.098-.67 1.075-.732 1.423-1.878 1.425-2.161H9.154l.02-2.77.008-.117h6.754c.364 2.107.036 4.323-1.275 6.056-.907 1.195-2.114 1.948-3.554 2.321a7.734 7.734 0 0 1-2.356.235zm13.33-4.054H20.26h-.07l.001-.07.019-2.43h-2.43-.077V9.72l.015-1.816v-.07H20.223l.02-2.437v-.069H22.204v.07l-.02 2.437h2.507v.069l-.014 1.816v.076H24.6h-2.43l-.02 2.43v.07h-.07z"/></svg>