<svg id="instagram" xmlns="http://www.w3.org/2000/svg" viewBox="2 1.999 17.201 17.194"><path d="M5.588 18.94c-1.95-.505-3.114-1.775-3.424-3.75-.23-1.45-.255-8.19.164-9.654.546-1.906 1.819-3.026 3.747-3.343C6.95 2.05 8.658 2 10.385 2c1.605 0 3.224.044 4.199.098 1.18.062 2.261.442 3.14 1.284.835.8 1.263 1.802 1.371 2.935.128 1.353.211 7.748-.187 9.247-.533 1.96-1.813 3.12-3.797 3.439-.742.12-2.745.191-4.744.191-2.047 0-4.091-.075-4.779-.254zm.918-15.255c-1.5.172-2.508 1.098-2.747 2.59-.247 1.58-.245 7.492-.06 8.68.19 1.236.89 2.085 2.122 2.43.668.188 2.666.254 4.626.254 1.803 0 3.575-.056 4.24-.13 1.514-.165 2.515-1.097 2.754-2.602.247-1.513.247-7.03.106-8.446-.154-1.513-1.079-2.507-2.575-2.742-.74-.112-2.525-.162-4.3-.162-1.712 0-3.416.047-4.166.128zm-.315 6.912a4.443 4.443 0 0 1 4.446-4.406 4.37 4.37 0 0 1 4.372 4.413 4.451 4.451 0 0 1-4.446 4.406 4.366 4.366 0 0 1-4.372-4.413zm1.553-.027a2.827 2.827 0 0 0 2.803 2.879h.026a2.88 2.88 0 0 0 2.876-2.824 2.823 2.823 0 0 0-2.803-2.88h-.026a2.88 2.88 0 0 0-2.876 2.825zm6.444-4.551a1.034 1.034 0 0 1 1.03-1.03h.013c.567 0 1.026.464 1.021 1.037a1.043 1.043 0 0 1-1.043 1.029 1.028 1.028 0 0 1-1.021-1.036z"/></svg>