<svg id="phone" xmlns="http://www.w3.org/2000/svg" viewBox="2 1.918 37 43.999"><path d="M15.44 40.922c0-2.754 2.27-4.995 5.06-4.995 2.79 0 5.06 2.241 5.06 4.995 0 2.755-2.27 4.995-5.06 4.995-2.79 0-5.06-2.24-5.06-4.995zm1.975 0c0 1.68 1.384 3.045 3.084 3.045 1.701 0 3.086-1.366 3.086-3.045 0-1.679-1.385-3.045-3.086-3.045-1.7 0-3.084 1.366-3.084 3.045zM28.88 29.586c0-2.755 2.27-4.995 5.06-4.995 2.789 0 5.059 2.24 5.059 4.995 0 2.754-2.27 4.995-5.06 4.995-2.79 0-5.059-2.241-5.059-4.995zm1.976 0c0 1.68 1.383 3.046 3.084 3.046 1.7 0 3.084-1.367 3.084-3.046 0-1.68-1.384-3.046-3.084-3.046-1.701 0-3.084 1.367-3.084 3.046zm-15.417 0c0-2.755 2.27-4.995 5.06-4.995 2.79 0 5.06 2.24 5.06 4.995 0 2.754-2.27 4.995-5.06 4.995-2.79 0-5.06-2.241-5.06-4.995zm1.975 0c0 1.68 1.384 3.046 3.084 3.046 1.701 0 3.086-1.367 3.086-3.046 0-1.68-1.385-3.046-3.086-3.046-1.7 0-3.084 1.367-3.084 3.046zM2 29.586c0-2.755 2.27-4.995 5.059-4.995 2.79 0 5.06 2.24 5.06 4.995 0 2.754-2.27 4.995-5.06 4.995-2.79 0-5.06-2.241-5.06-4.995zm1.974 0c0 1.68 1.384 3.046 3.085 3.046 1.7 0 3.084-1.367 3.084-3.046 0-1.68-1.383-3.046-3.084-3.046s-3.085 1.367-3.085 3.046zm24.907-11.337c0-2.754 2.27-4.995 5.06-4.995 2.789 0 5.059 2.241 5.059 4.995 0 2.755-2.27 4.995-5.06 4.995-2.79 0-5.059-2.24-5.059-4.995zm1.976 0c0 1.68 1.383 3.045 3.084 3.045 1.7 0 3.084-1.365 3.084-3.045 0-1.679-1.384-3.045-3.084-3.045-1.701 0-3.084 1.366-3.084 3.045zm-15.417 0c0-2.754 2.27-4.995 5.06-4.995 2.79 0 5.06 2.241 5.06 4.995 0 2.755-2.27 4.995-5.06 4.995-2.79 0-5.06-2.24-5.06-4.995zm1.975 0c0 1.68 1.384 3.045 3.084 3.045 1.701 0 3.086-1.365 3.086-3.045 0-1.679-1.385-3.045-3.086-3.045-1.7 0-3.084 1.366-3.084 3.045zM2 18.249c0-2.754 2.27-4.995 5.059-4.995 2.79 0 5.06 2.241 5.06 4.995 0 2.755-2.27 4.995-5.06 4.995-2.79 0-5.06-2.24-5.06-4.995zm1.974 0c0 1.68 1.384 3.045 3.085 3.045 1.7 0 3.084-1.365 3.084-3.045 0-1.679-1.383-3.045-3.084-3.045s-3.085 1.366-3.085 3.045zM28.881 6.913c0-2.755 2.27-4.995 5.06-4.995C36.73 1.918 39 4.158 39 6.913c0 2.754-2.27 4.995-5.06 4.995-2.79 0-5.059-2.24-5.059-4.995zm1.976 0c0 1.68 1.383 3.046 3.084 3.046 1.7 0 3.084-1.367 3.084-3.046 0-1.68-1.384-3.046-3.084-3.046-1.701 0-3.084 1.367-3.084 3.046zm-15.417 0c0-2.755 2.27-4.995 5.06-4.995 2.79 0 5.06 2.24 5.06 4.995 0 2.754-2.27 4.995-5.06 4.995-2.79 0-5.06-2.24-5.06-4.995zm1.975 0c0 1.68 1.384 3.046 3.084 3.046 1.701 0 3.086-1.367 3.086-3.046 0-1.68-1.385-3.046-3.086-3.046-1.7 0-3.084 1.367-3.084 3.046zM2 6.913c0-2.755 2.27-4.995 5.059-4.995 2.79 0 5.06 2.24 5.06 4.995 0 2.754-2.27 4.995-5.06 4.995-2.79 0-5.06-2.24-5.06-4.995zm1.974 0c0 1.68 1.384 3.046 3.085 3.046 1.7 0 3.084-1.367 3.084-3.046 0-1.68-1.383-3.046-3.084-3.046S3.974 5.234 3.974 6.913z"/></svg>