<svg id="slider-left" width="51" height="51" xmlns="http://www.w3.org/2000/svg" xmlns:xlink="http://www.w3.org/1999/xlink" xmlns:svgjs="http://svgjs.com/svgjs" viewBox="1424 1305 51 51">
<svg width="51" height="51" xmlns="http://www.w3.org/2000/svg" xmlns:xlink="http://www.w3.org/1999/xlink" xmlns:svgjs="http://svgjs.com/svgjs" fill="none" stroke-miterlimit="100" stroke="#a3bbc8" stroke-width="2" opacity="1" x="1424" y="1305">
<svg xmlns="http://www.w3.org/2000/svg" xmlns:xlink="http://www.w3.org/1999/xlink" width="51" height="51" viewBox="1 2 50 50"><path paint-order="stroke fill markers" d="M6 2h40a5 5 0 0 1 5 5v40a5 5 0 0 1-5 5H6a5 5 0 0 1-5-5V7a5 5 0 0 1 5-5z"/></svg></svg><svg width="23" height="10" xmlns="http://www.w3.org/2000/svg" xmlns:xlink="http://www.w3.org/1999/xlink" xmlns:svgjs="http://svgjs.com/svgjs" viewBox="0 0.296 23 9.409" fill="#a3bbc8" x="1438" y="1326">
<svg xmlns="http://www.w3.org/2000/svg" width="23" height="10" viewBox="2 1.003 22 8.999"><path paint-order="stroke fill markers" fill-rule="evenodd" d="M23.704 4.526l.008.003H6.756l.1-2.859a.29.29 0 0 0 0-.41l-.172-.173a.287.287 0 0 0-.407 0L2.083 5.298a.288.288 0 0 0 0 .409L6.276 9.92a.288.288 0 0 0 .204.083c.077 0 .15-.03.204-.083l.172-.174a.285.285 0 0 0 0-.404l-.113-2.864h16.965A.3.3 0 0 0 24 6.18v-1.37a.293.293 0 0 0-.296-.285z"/></svg>
</svg>
</svg>