<svg id="twitter" xmlns="http://www.w3.org/2000/svg" viewBox="1.361 1.888 14.329 11.612"><path d="M15.69 3.277c-.105.16-.21.307-.332.45a5.57 5.57 0 0 1-1.072 1.015l-.05.093c.013.433-.007.867-.065 1.3a8.717 8.717 0 0 1-2.374 4.92 7.9 7.9 0 0 1-4.049 2.249 9.021 9.021 0 0 1-1.9.196 8.216 8.216 0 0 1-4.417-1.266l-.07-.043c.232.024.461.037.689.037.775 0 1.52-.145 2.248-.438.501-.208.964-.472 1.4-.817-1.52-.05-2.465-1.147-2.71-2.035.181.035.363.052.544.052.237 0 .474-.03.712-.085l.044-.022c-.827-.192-1.46-.631-1.894-1.344a2.856 2.856 0 0 1-.42-1.558c.414.22.841.34 1.302.351-.617-.444-1.029-1.031-1.193-1.777a2.887 2.887 0 0 1 .334-2.123c1.57 1.87 3.57 2.897 6.021 3.066-.015-.12-.03-.219-.047-.323-.077-.69.07-1.333.448-1.914.472-.735 1.14-1.19 1.996-1.328.182-.03.36-.045.533-.045.768 0 1.446.294 2.028.863.036.032.067.05.108.05a.175.175 0 0 0 .045-.007 5.783 5.783 0 0 0 1.71-.652l.04-.022c-.214.68-.64 1.206-1.247 1.596.571-.06 1.11-.214 1.638-.439z"/></svg>