<svg width="56" height="38" xmlns="http://www.w3.org/2000/svg" xmlns:xlink="http://www.w3.org/1999/xlink" xmlns:svgjs="http://svgjs.com/svgjs" viewBox="802 1019 56 38"><svg width="51" height="31" xmlns="http://www.w3.org/2000/svg" xmlns:xlink="http://www.w3.org/1999/xlink" xmlns:svgjs="http://svgjs.com/svgjs" viewBox="0 0.26 51 30.48" fill="#a3bbc8" x="802" y="1019"><svg xmlns="http://www.w3.org/2000/svg" xmlns:xlink="http://www.w3.org/1999/xlink" width="51" height="31" viewBox="1.811 1.568 49.112 29.352"><path paint-order="stroke fill markers" fill-rule="evenodd" d="M10.816 6.334H4.69a.786.786 0 0 0 0 1.572h6.126a.786.786 0 0 0 0-1.572zm.524 11.006H5.738a.786.786 0 0 0 0 1.572h5.602a.785.785 0 0 0 0-1.572zm-2.094-4.717h-6.65a.786.786 0 1 0 0 1.572h6.65a.786.786 0 0 0 0-1.572zm0 11.006h-.644a.786.786 0 0 0 0 1.573h.644a.786.786 0 0 0 0-1.573zm-3.263 0H2.596a.786.786 0 0 0 0 1.573h3.387a.786.786 0 0 0 0-1.573zm36.86-19.86h-6.657V2.354a.786.786 0 0 0-.786-.786H23.225a.786.786 0 0 0 0 1.572h11.39v17.22a.786.786 0 1 0 1.57 0V5.342h6.658c3.589 0 6.509 2.922 6.509 6.513v13.3h-1.997a4.983 4.983 0 0 0-4.912-4.194 4.983 4.983 0 0 0-4.912 4.193h-1.345V24.03a.785.785 0 1 0-1.571 0v1.125h-8.336a4.983 4.983 0 0 0-4.911-4.193 4.983 4.983 0 0 0-4.912 4.193h-1.634V3.14h5.261a.786.786 0 0 0 0-1.572h-6.046a.786.786 0 0 0-.785.786V25.94c0 .434.351.787.785.787h2.419a4.983 4.983 0 0 0 4.912 4.192 4.983 4.983 0 0 0 4.911-4.192h11.252a4.983 4.983 0 0 0 4.912 4.192 4.983 4.983 0 0 0 4.912-4.192h2.782a.786.786 0 0 0 .785-.787V11.855c0-4.458-3.624-8.086-8.079-8.086zM21.368 29.347a3.409 3.409 0 0 1-3.404-3.407 3.409 3.409 0 0 1 3.404-3.406 3.409 3.409 0 0 1 3.403 3.406 3.409 3.409 0 0 1-3.403 3.407zm21.075 0a3.41 3.41 0 0 1-3.403-3.406v-.001a3.408 3.408 0 0 1 3.403-3.406 3.409 3.409 0 0 1 3.404 3.406 3.409 3.409 0 0 1-3.404 3.407zm.4-22.433h-4.3a.786.786 0 0 0-.786.786v7.39c0 .435.351.787.785.787h8.453a.786.786 0 0 0 .786-.787v-3.235a4.945 4.945 0 0 0-4.938-4.94zm3.367 7.39h-6.882V8.487h3.515a3.371 3.371 0 0 1 3.367 3.368v2.45zm-24.842 9.61c-1.117 0-2.025.909-2.025 2.026 0 1.118.908 2.027 2.025 2.027a2.028 2.028 0 0 0 0-4.054zm0 2.481a.455.455 0 1 1 .002-.91.455.455 0 0 1-.002.91zm21.075-2.481c-1.116 0-2.025.909-2.025 2.026 0 1.118.909 2.027 2.025 2.027a2.028 2.028 0 0 0 0-4.054zm0 2.481a.455.455 0 1 1 .002-.91.455.455 0 0 1-.002.91zm4.552-8.37a.786.786 0 0 0-.785.787v1.992a.786.786 0 1 0 1.57 0v-1.992a.786.786 0 0 0-.785-.787z"/></svg></svg><svg width="22" height="21" xmlns="http://www.w3.org/2000/svg" xmlns:xlink="http://www.w3.org/1999/xlink" xmlns:svgjs="http://svgjs.com/svgjs" viewBox="0.483 0 21.034 21" fill="#a3bbc8" opacity=".341" x="836" y="1036"><svg xmlns="http://www.w3.org/2000/svg" width="22" height="21" viewBox="1.937 1.406 19.625 19.594"><path paint-order="stroke fill markers" fill-rule="evenodd" d="M11.75 1.406c5.42 0 9.812 4.386 9.812 9.797 0 5.41-4.393 9.797-9.812 9.797-5.42 0-9.813-4.386-9.813-9.797 0-5.41 4.394-9.797 9.813-9.797z"/></svg></svg></svg>