 <svg width="55" height="54" xmlns="http://www.w3.org/2000/svg" xmlns:xlink="http://www.w3.org/1999/xlink" xmlns:svgjs="http://svgjs.com/svgjs" viewBox="1397 1010 55 54"><svg width="51" height="46" xmlns="http://www.w3.org/2000/svg" xmlns:xlink="http://www.w3.org/1999/xlink" xmlns:svgjs="http://svgjs.com/svgjs" viewBox="0 0.239 51 45.521" fill="#a3bbc8" x="1397" y="1010"><svg xmlns="http://www.w3.org/2000/svg" xmlns:xlink="http://www.w3.org/1999/xlink" width="51" height="46" viewBox="1.258 1.418 49.112 43.836"><path paint-order="stroke fill markers" fill-rule="evenodd" d="M47.425 32.315a.836.836 0 0 0-.836.836v8.266c0 1.193-.97 2.165-2.162 2.165H5.092a2.167 2.167 0 0 1-2.163-2.165v-11.92H30.22a.836.836 0 0 0 0-1.673H2.93v-5.47h9.868a.836.836 0 0 0 0-1.673H2.929v-2.884c0-1.194.97-2.166 2.163-2.166H30.22a.836.836 0 0 0 0-1.673H5.092a3.841 3.841 0 0 0-3.834 3.839v23.62a3.84 3.84 0 0 0 3.834 3.837h39.335a3.84 3.84 0 0 0 3.834-3.837V33.15a.837.837 0 0 0-.836-.836zM30.22 20.681H16.004a.836.836 0 0 0 0 1.674H30.22a.836.836 0 0 0 0-1.674zm-9.238 11.555H6.71a.837.837 0 0 0 0 1.674h14.27a.836.836 0 0 0 0-1.674zm-6.086 3.992H6.71a.836.836 0 0 0 0 1.673h8.184a.836.836 0 0 0 0-1.673zm34.638-13.607a.836.836 0 0 0 .836-.837v-4.773a3.048 3.048 0 0 0-2.394-2.974V8.021c0-3.64-2.958-6.603-6.595-6.603-3.636 0-6.595 2.962-6.595 6.603v6.016a3.049 3.049 0 0 0-2.393 2.975v10.747a3.046 3.046 0 0 0 3.041 3.044h11.894a3.047 3.047 0 0 0 3.042-3.044v-3.186a.836.836 0 1 0-1.672 0v3.186c0 .756-.614 1.37-1.37 1.37H35.434c-.755 0-1.37-.614-1.37-1.37V17.01c0-.755.615-1.37 1.37-1.37h11.894c.756 0 1.37.615 1.37 1.37v4.773c0 .462.375.837.836.837zm-3.23-8.654h-9.846V8.021a4.931 4.931 0 0 1 4.923-4.929 4.931 4.931 0 0 1 4.923 4.929v5.946zm-4.922 4.322a3.097 3.097 0 0 0-3.093 3.095c0 1.417.957 2.613 2.257 2.98v2.04a.835.835 0 1 0 1.671 0v-2.04a3.099 3.099 0 0 0 2.257-2.98 3.097 3.097 0 0 0-3.092-3.095zm0 4.517a1.423 1.423 0 0 1 0-2.844 1.423 1.423 0 0 1 0 2.844z"/></svg></svg><svg width="21" height="21" xmlns="http://www.w3.org/2000/svg" xmlns:xlink="http://www.w3.org/1999/xlink" xmlns:svgjs="http://svgjs.com/svgjs" viewBox="0 0.017 21 20.967" fill="#a3bbc8" opacity=".341" x="1431" y="1043"><svg xmlns="http://www.w3.org/2000/svg" width="21" height="21" viewBox="1.187 1.062 19.625 19.594"><path paint-order="stroke fill markers" fill-rule="evenodd" d="M11 1.062c5.42 0 9.812 4.386 9.812 9.797 0 5.41-4.393 9.797-9.812 9.797-5.42 0-9.813-4.386-9.813-9.797 0-5.41 4.394-9.797 9.813-9.797z"/></svg></svg></svg>