<svg width="53" height="55" xmlns="http://www.w3.org/2000/svg" xmlns:xlink="http://www.w3.org/1999/xlink" xmlns:svgjs="http://svgjs.com/svgjs" viewBox="221 1010 53 55"><svg width="21" height="22" xmlns="http://www.w3.org/2000/svg" xmlns:xlink="http://www.w3.org/1999/xlink" xmlns:svgjs="http://svgjs.com/svgjs" viewBox="0 0.483 21 21.034" fill="#a3bbc8" opacity=".341" x="253" y="1043"><svg xmlns="http://www.w3.org/2000/svg" xmlns:xlink="http://www.w3.org/1999/xlink" width="21" height="22" viewBox="1.187 1.594 19.594 19.625"><path paint-order="stroke fill markers" fill-rule="evenodd" d="M10.984 1.594c5.411 0 9.797 4.393 9.797 9.812 0 5.42-4.386 9.813-9.797 9.813-5.41 0-9.797-4.394-9.797-9.813 0-5.42 4.387-9.812 9.797-9.812z"/></svg></svg><svg width="51" height="51" xmlns="http://www.w3.org/2000/svg" xmlns:xlink="http://www.w3.org/1999/xlink" xmlns:svgjs="http://svgjs.com/svgjs" fill="#a3bbc8" x="221" y="1010"><svg xmlns="http://www.w3.org/2000/svg" width="51" height="51" viewBox="1.907 1.094 49.112 49.112"><path paint-order="stroke fill markers" fill-rule="evenodd" d="M47.312 12.67a.938.938 0 1 0-1.592.992 22.618 22.618 0 0 1 3.424 11.988c0 12.506-10.175 22.68-22.68 22.68-4.952 0-9.656-1.566-13.604-4.53a.937.937 0 1 0-1.125 1.5c4.275 3.21 9.368 4.906 14.728 4.906 13.54 0 24.556-11.016 24.556-24.556 0-4.604-1.282-9.093-3.707-12.98zm-23.03 21.938h-7.55l4.743-4.743a12.698 12.698 0 0 0 3.744-9.039 5.851 5.851 0 0 0-5.844-5.844 5.851 5.851 0 0 0-5.844 5.844.938.938 0 1 0 1.875 0c0-2.189 1.78-3.97 3.969-3.97a3.973 3.973 0 0 1 3.969 3.97c0 2.914-1.135 5.654-3.195 7.714l-6.344 6.343a.938.938 0 0 0 .663 1.6h9.813a.938.938 0 0 0 0-1.875zm15.04-6.438H36.72v-1.516a.938.938 0 1 0-1.875 0v1.516h-5.286l5.286-8.852v4.21a.937.937 0 1 0 1.875 0V15.92v-.008a.936.936 0 0 0-1.743-.472l-7.875 13.188a.937.937 0 0 0 .805 1.419h6.938v5.5a.938.938 0 0 0 1.875 0v-5.5h2.601a.938.938 0 0 0 0-1.876zM44.65 5.538a.938.938 0 0 0-1.875.045l.042 1.749a24.405 24.405 0 0 0-6.345-4.112 24.367 24.367 0 0 0-10.01-2.126c-13.54 0-24.556 11.016-24.556 24.556 0 6.648 2.615 12.875 7.362 17.53a.931.931 0 0 0 1.326-.012.937.937 0 0 0-.014-1.325C6.197 37.541 3.782 31.79 3.782 25.65c0-12.506 10.175-22.68 22.681-22.68A22.76 22.76 0 0 1 41.57 8.736l-1.843.043a.937.937 0 0 0 .022 1.874h.023l4.06-.096a.938.938 0 0 0 .915-.96l-.096-4.06z"/></svg></svg></svg>