<?xml version="1.0" encoding="utf-8"?><svg viewBox="0 0 612 612" xmlns="http://www.w3.org/2000/svg" xmlns:xlink="http://www.w3.org/1999/xlink"><style>:root>svg{display:none}:root>svg:target{display:block}</style><svg viewBox="2 1.999 31 44.001" id="address" xmlns="http://www.w3.org/2000/svg"><path d="M16.597 45.81l-6.584-2.918-5.674 2.51a1.652 1.652 0 01-1.864-.355c-.49-.5-.613-1.23-.313-1.862l4.994-10.516a1.107 1.107 0 011.986-.023 1.1 1.1 0 01-.014 1.01L4.785 42.8l4.32-1.914a2.227 2.227 0 011.806.001l6.583 2.916h.011l6.585-2.917a2.222 2.222 0 011.804 0l4.32 1.914-4.342-9.145a1.093 1.093 0 01.174-1.275 1.107 1.107 0 011.798.288l4.994 10.518c.3.63.177 1.36-.313 1.86a1.648 1.648 0 01-1.863.356l-5.665-2.51-6.594 2.917a2.22 2.22 0 01-1.806 0zm-1.947-7.6L5.102 22.283A13.892 13.892 0 013.54 15.81c.023-3.642 1.464-7.083 4.06-9.689a13.903 13.903 0 019.702-4.12 13.897 13.897 0 019.999 4 13.76 13.76 0 014.158 9.893 13.691 13.691 0 01-1.562 6.39L20.349 38.21a3.293 3.293 0 01-2.849 1.61 3.294 3.294 0 01-2.85-1.61zm2.683-34.012C10.983 4.285 5.785 9.5 5.747 15.823a11.525 11.525 0 001.269 5.366l9.53 15.896c.29.487.764.54.954.54.19 0 .663-.053.955-.54l9.528-15.896a11.526 11.526 0 001.27-5.295 11.59 11.59 0 00-3.501-8.33 11.694 11.694 0 00-8.42-3.366zm-4.884 11.696c0-2.772 2.266-5.026 5.051-5.026s5.05 2.254 5.05 5.026c0 2.773-2.265 5.027-5.05 5.027-2.785 0-5.05-2.254-5.05-5.027zm2.206 0a2.842 2.842 0 002.845 2.832 2.84 2.84 0 002.844-2.832 2.84 2.84 0 00-2.844-2.83 2.841 2.841 0 00-2.845 2.83z"/></svg><svg viewBox="2 1.996 22 9.001" id="arrow-right" xmlns="http://www.w3.org/2000/svg"><path d="M2.296 7.472h-.008 16.956l-.1 2.857a.287.287 0 00-.084.205c0 .077.03.15.084.205l.172.172a.286.286 0 00.407.002l4.193-4.211a.289.289 0 000-.41L19.723 2.08a.29.29 0 00-.407 0l-.172.173a.288.288 0 000 .405l.113 2.865H2.292A.298.298 0 002 5.818v1.37c0 .159.137.284.296.284z"/></svg><svg viewBox="0 0 448 512" id="arrow-right-sm" xmlns="http://www.w3.org/2000/svg"><path d="M190.5 66.9l22.2-22.2c9.4-9.4 24.6-9.4 33.9 0L441 239c9.4 9.4 9.4 24.6 0 33.9L246.6 467.3c-9.4 9.4-24.6 9.4-33.9 0l-22.2-22.2c-9.5-9.5-9.3-25 .4-34.3L311.4 296H24c-13.3 0-24-10.7-24-24v-32c0-13.3 10.7-24 24-24h287.4L190.9 101.2c-9.8-9.3-10-24.8-.4-34.3z"/></svg><svg viewBox="0 0 448 512" id="calendar" xmlns="http://www.w3.org/2000/svg"><path d="M148 288h-40c-6.6 0-12-5.4-12-12v-40c0-6.6 5.4-12 12-12h40c6.6 0 12 5.4 12 12v40c0 6.6-5.4 12-12 12zm108-12v-40c0-6.6-5.4-12-12-12h-40c-6.6 0-12 5.4-12 12v40c0 6.6 5.4 12 12 12h40c6.6 0 12-5.4 12-12zm96 0v-40c0-6.6-5.4-12-12-12h-40c-6.6 0-12 5.4-12 12v40c0 6.6 5.4 12 12 12h40c6.6 0 12-5.4 12-12zm-96 96v-40c0-6.6-5.4-12-12-12h-40c-6.6 0-12 5.4-12 12v40c0 6.6 5.4 12 12 12h40c6.6 0 12-5.4 12-12zm-96 0v-40c0-6.6-5.4-12-12-12h-40c-6.6 0-12 5.4-12 12v40c0 6.6 5.4 12 12 12h40c6.6 0 12-5.4 12-12zm192 0v-40c0-6.6-5.4-12-12-12h-40c-6.6 0-12 5.4-12 12v40c0 6.6 5.4 12 12 12h40c6.6 0 12-5.4 12-12zm96-260v352c0 26.5-21.5 48-48 48H48c-26.5 0-48-21.5-48-48V112c0-26.5 21.5-48 48-48h48V12c0-6.6 5.4-12 12-12h40c6.6 0 12 5.4 12 12v52h128V12c0-6.6 5.4-12 12-12h40c6.6 0 12 5.4 12 12v52h48c26.5 0 48 21.5 48 48zm-48 346V160H48v298c0 3.3 2.7 6 6 6h340c3.3 0 6-2.7 6-6z"/></svg><svg viewBox="2 1.998 18.956 16.98" id="cart" xmlns="http://www.w3.org/2000/svg"><path d="M7.526 18.978c-.536 0-1.063-.21-1.461-.607a2.066 2.066 0 01-.453-2.26 2.068 2.068 0 011.915-1.28h.006c.55 0 1.07.214 1.46.602.393.394.609.913.609 1.467.002.84-.5 1.593-1.277 1.917-.258.108-.53.16-.799.16zm.007-2.963h-.004a.887.887 0 00-.628 1.518.89.89 0 10.632-1.518zm8.385 2.963c-.537 0-1.064-.21-1.461-.607a2.065 2.065 0 01-.452-2.26 2.065 2.065 0 011.913-1.28c.546-.04 1.08.218 1.468.603.392.393.607.912.607 1.466a2.064 2.064 0 01-1.274 1.917c-.26.108-.532.16-.8.16zm.006-2.963h-.001c-.331.032-.685.215-.823.548a.89.89 0 10.824-.548zm-11.279.163a.592.592 0 01-.536-.843c.579-1.24 1.627-1.973 3.054-2.15L6.108 7.792a.593.593 0 011.163-.227l1.091 5.578h9.423l1.807-6.771H6.29A4.354 4.354 0 012.007 2.68a.591.591 0 111.171-.175 3.165 3.165 0 003.115 2.682h14.07a.592.592 0 01.573.745l-2.123 7.956a.594.594 0 01-.573.44H7.885a.044.044 0 00-.023 0c-1.33 0-2.205.493-2.68 1.51a.593.593 0 01-.537.34z"/></svg><svg viewBox="2 1.998 22 20.001" id="cart-product" xmlns="http://www.w3.org/2000/svg"><path d="M2.814 3.629h2.333L8.47 15.667c.095.353.42.597.787.597h10.214c.326 0 .61-.19.746-.488l3.717-8.56a.828.828 0 00-.068-.776.81.81 0 00-.678-.366H11.902a.817.817 0 000 1.631H21.94l-3.011 6.929H9.867L6.544 2.596a.815.815 0 00-.787-.598H2.814A.817.817 0 002 2.814c0 .448.366.815.814.815zm5.67 18.37a1.848 1.848 0 000-3.696 1.848 1.848 0 000 3.696zm11.53 0h.135a1.841 1.841 0 001.262-.64 1.85 1.85 0 00-1.52-3.057 1.85 1.85 0 00-1.708 1.971 1.85 1.85 0 001.83 1.726z"/></svg><svg viewBox="0 0 492 492" id="close-btn" xmlns="http://www.w3.org/2000/svg"><path d="M300.188 246L484.14 62.04c5.06-5.064 7.852-11.82 7.86-19.024 0-7.208-2.792-13.972-7.86-19.028L468.02 7.872C462.952 2.796 456.196.016 448.984.016c-7.2 0-13.956 2.78-19.024 7.856L246.008 191.82 62.048 7.872C56.988 2.796 50.228.016 43.02.016c-7.2 0-13.96 2.78-19.02 7.856L7.872 23.988c-10.496 10.496-10.496 27.568 0 38.052L191.828 246 7.872 429.952C2.808 435.024.02 441.78.02 448.984c0 7.204 2.788 13.96 7.852 19.028l16.124 16.116c5.06 5.072 11.824 7.856 19.02 7.856 7.208 0 13.968-2.784 19.028-7.856l183.96-183.952 183.952 183.952c5.068 5.072 11.824 7.856 19.024 7.856h.008c7.204 0 13.96-2.784 19.028-7.856l16.12-16.116c5.06-5.064 7.852-11.824 7.852-19.028 0-7.204-2.792-13.96-7.852-19.028L300.188 246z"/></svg><svg viewBox="2 1.918 36.999 34" id="email" xmlns="http://www.w3.org/2000/svg"><path d="M2.975 35.918a.958.958 0 01-.67-.272.93.93 0 01-.277-.659L2 14.786v-.017a.927.927 0 01.41-.754L7.73 10.4V6.56a.94.94 0 01.949-.932h6.067l5.217-3.546a.96.96 0 011.079.001l5.185 3.545h6.093a.94.94 0 01.947.932v3.882l5.297 3.621c.19.13.316.315.373.519.021.046.034.13.034.184l.028 20.17a.94.94 0 01-.946.933l-35.077.048zm2.773-1.867l29.478-.041-14.712-11.224L5.748 34.05zm-1.828-.965l11.443-8.73-11.466-7.793.023 16.523zm21.72-8.748l11.46 8.744-.023-16.565-11.438 7.821zM9.626 18.19l7.308 4.968 3-2.288a.96.96 0 011.16 0l2.977 2.272 7.301-4.993V7.493H9.626V18.19zm-5.013-3.408l3.118 2.12v-4.24l-3.118 2.12zm28.654 2.072l3.028-2.07-3.028-2.07v4.14zM18.08 5.629h4.828L20.5 3.984 18.08 5.63zm-3.994 12.303a.94.94 0 01-.948-.933.94.94 0 01.948-.932h12.83a.94.94 0 01.946.932.94.94 0 01-.946.933h-12.83zm0-4.847a.94.94 0 01-.948-.932.94.94 0 01.948-.932h12.83a.94.94 0 01.946.932.94.94 0 01-.946.932h-12.83z"/></svg><svg viewBox="1.103 1.125 8.116 15.432" id="facebook" xmlns="http://www.w3.org/2000/svg"><path d="M7.19 1.125c.413 0 .828.022 1.24.04.268.011.537.05.789.077l-.02 2.485h-.197c-.272 0-.545-.003-.818-.003a17.9 17.9 0 00-.613.008c-.659.022-1.144.27-1.177 1.092-.021.592-.036 1.9-.037 1.97l1.34.001c.327 0 .647 0 .87-.002H9.1c-.133.955-.255 1.87-.388 2.792H6.357l-.053 6.971h-2.89l.053-6.982H1.103l.021-2.776H3.5l.002-.208c.004-.56-.003-1.119.018-1.678.008-.351.027-.713.09-1.065.16-.85.555-1.563 1.267-2.073.623-.444 1.332-.63 2.084-.647.076-.002.153-.002.23-.002z"/></svg><svg viewBox="0 0 512 512" id="filter" xmlns="http://www.w3.org/2000/svg"><path d="M420.404 0H91.596C41.09 0 0 41.09 0 91.596v328.809C0 470.91 41.09 512 91.596 512h328.809C470.91 512 512 470.91 512 420.404V91.596C512 41.09 470.91 0 420.404 0zM482 420.404C482 454.368 454.368 482 420.404 482H91.596C57.632 482 30 454.368 30 420.404V91.596C30 57.632 57.632 30 91.596 30h328.809C454.368 30 482 57.632 482 91.596z"/><path d="M432.733 112.467H204.272c-6.281-18.655-23.926-32.133-44.672-32.133s-38.391 13.478-44.672 32.133H79.267c-8.284 0-15 6.716-15 15s6.716 15 15 15h35.662c6.281 18.655 23.926 32.133 44.672 32.133s38.391-13.478 44.672-32.133h228.461c8.284 0 15-6.716 15-15s-6.716-15-15.001-15zM159.6 144.6c-9.447 0-17.133-7.686-17.133-17.133s7.686-17.133 17.133-17.133 17.133 7.686 17.133 17.133S169.047 144.6 159.6 144.6zM432.733 241h-35.662c-6.281-18.655-23.927-32.133-44.672-32.133s-38.39 13.478-44.671 32.133H79.267c-8.284 0-15 6.716-15 15s6.716 15 15 15h228.461c6.281 18.655 23.927 32.133 44.672 32.133s38.391-13.478 44.672-32.133h35.662c8.284 0 15-6.716 15-15s-6.716-15-15.001-15zM352.4 273.133c-9.447 0-17.133-7.686-17.133-17.133s7.686-17.133 17.133-17.133 17.133 7.686 17.133 17.133-7.686 17.133-17.133 17.133zM432.733 369.533H268.539c-6.281-18.655-23.926-32.133-44.672-32.133s-38.391 13.478-44.672 32.133H79.267c-8.284 0-15 6.716-15 15s6.716 15 15 15h99.928c6.281 18.655 23.926 32.133 44.672 32.133s38.391-13.478 44.672-32.133h164.195c8.284 0 15-6.716 15-15s-6.716-15-15.001-15zm-208.866 32.134c-9.447 0-17.133-7.686-17.133-17.133s7.686-17.133 17.133-17.133S241 375.086 241 384.533s-7.686 17.134-17.133 17.134z"/></svg><svg viewBox="2 2 22.692 14.361" id="google" xmlns="http://www.w3.org/2000/svg"><path d="M8.751 16.35c-1.409-.083-2.69-.525-3.823-1.36-1.462-1.078-2.383-2.515-2.77-4.29a6.496 6.496 0 01-.138-1.933 7.044 7.044 0 011.62-4.102 7.123 7.123 0 013.865-2.458 5.8 5.8 0 011.19-.186C8.922 2.013 9.15 2 9.378 2a6.741 6.741 0 013.398.932c.7.4 1.098.808 1.27.932-.717.705-1.405 1.395-2.108 2.086-.522-.45-1.099-.863-2.099-1.016a4.322 4.322 0 00-.613-.044c-2.007 0-3.688 1.45-4.136 3.353a3.941 3.941 0 00-.1 1.298c.153 1.768 1.336 3.218 2.935 3.736a4.177 4.177 0 001.552.179c.753-.048 1.458-.248 2.098-.67 1.075-.732 1.423-1.878 1.425-2.161H9.154l.02-2.77.008-.117h6.754c.364 2.107.036 4.323-1.275 6.056-.907 1.195-2.114 1.948-3.554 2.321a7.734 7.734 0 01-2.356.235zm13.33-4.054H20.19l.001-.07.019-2.43h-2.507V9.72l.015-1.816v-.07h2.505l.02-2.437v-.069h1.961v.07l-.02 2.437h2.507v.069l-.014 1.816v.076H22.17l-.02 2.43v.07h-.07z"/></svg><svg viewBox="1.983 1.721 17.859 15.523" id="heart" xmlns="http://www.w3.org/2000/svg"><path d="M10.913 17.244a.707.707 0 01-.28-.056c-.353-.15-8.65-3.75-8.65-10.76.091-2.65 2.207-4.707 4.818-4.707 1.743 0 3.266.918 4.112 2.31a4.796 4.796 0 014.112-2.31c2.61 0 4.725 2.058 4.817 4.684 0 7.034-8.297 10.634-8.65 10.783a.71.71 0 01-.28.056zM6.8 3.106c-1.847 0-3.343 1.47-3.408 3.346 0 5.408 6.125 8.663 7.52 9.335 1.395-.672 7.52-3.93 7.52-9.358-.065-1.853-1.563-3.323-3.408-3.323s-3.342 1.47-3.408 3.346a.7.7 0 01-.704.67.7.7 0 01-.705-.67C10.143 4.576 8.646 3.106 6.8 3.106z"/></svg><svg viewBox="2 1.999 22 18" id="heart-product" xmlns="http://www.w3.org/2000/svg"><path d="M23.99 7.82a6.21 6.21 0 00-1.849-4.1c-1.125-1.11-2.596-1.721-4.139-1.721-2.311 0-3.948 1.785-4.827 2.745l-.156.17-.083-.095C12.132 3.903 10.46 2 7.998 2c-1.543 0-3.013.61-4.139 1.72a6.21 6.21 0 00-1.849 4.1c-.082 1.541.31 2.88 1.27 4.338.862 1.308 3.105 3.374 4.764 4.748 1.705 1.41 3.95 3.093 4.965 3.093 1.032 0 3.27-1.68 4.965-3.087 1.646-1.367 3.876-3.432 4.746-4.754.646-.984 1.375-2.366 1.27-4.338zm-2.376 3.61c-.632.961-2.412 2.736-4.43 4.418-2.407 2.004-3.832 2.795-4.173 2.826-.342-.035-1.77-.833-4.188-2.843-2.03-1.686-3.813-3.454-4.437-4.402-.795-1.206-1.12-2.297-1.054-3.538.135-2.519 2.228-4.57 4.666-4.57 1.863 0 3.216 1.543 3.943 2.371.428.488.663.755 1.06.755.408 0 .671-.286 1.15-.81.794-.865 2.122-2.315 3.851-2.315 2.438 0 4.531 2.05 4.666 4.57.067 1.253-.248 2.312-1.054 3.538z"/></svg><svg viewBox="2 1.999 17.201 17.194" id="instagram" xmlns="http://www.w3.org/2000/svg"><path d="M5.588 18.94c-1.95-.505-3.114-1.775-3.424-3.75-.23-1.45-.255-8.19.164-9.654.546-1.906 1.819-3.026 3.747-3.343C6.95 2.05 8.658 2 10.385 2c1.605 0 3.224.044 4.199.098 1.18.062 2.261.442 3.14 1.284.835.8 1.263 1.802 1.371 2.935.128 1.353.211 7.748-.187 9.247-.533 1.96-1.813 3.12-3.797 3.439-.742.12-2.745.191-4.744.191-2.047 0-4.091-.075-4.779-.254zm.918-15.255c-1.5.172-2.508 1.098-2.747 2.59-.247 1.58-.245 7.492-.06 8.68.19 1.236.89 2.085 2.122 2.43.668.188 2.666.254 4.626.254 1.803 0 3.575-.056 4.24-.13 1.514-.165 2.515-1.097 2.754-2.602.247-1.513.247-7.03.106-8.446-.154-1.513-1.079-2.507-2.575-2.742-.74-.112-2.525-.162-4.3-.162-1.712 0-3.416.047-4.166.128zm-.315 6.912a4.443 4.443 0 014.446-4.406 4.37 4.37 0 014.372 4.413 4.451 4.451 0 01-4.446 4.406 4.366 4.366 0 01-4.372-4.413zm1.553-.027a2.827 2.827 0 002.803 2.879h.026a2.88 2.88 0 002.876-2.824 2.823 2.823 0 00-2.803-2.88h-.026a2.88 2.88 0 00-2.876 2.825zm6.444-4.551a1.034 1.034 0 011.03-1.03h.013c.567 0 1.026.464 1.021 1.037a1.043 1.043 0 01-1.043 1.029 1.028 1.028 0 01-1.021-1.036z"/></svg><svg viewBox="2 1.918 37 43.999" id="phone" xmlns="http://www.w3.org/2000/svg"><path d="M15.44 40.922c0-2.754 2.27-4.995 5.06-4.995 2.79 0 5.06 2.241 5.06 4.995 0 2.755-2.27 4.995-5.06 4.995-2.79 0-5.06-2.24-5.06-4.995zm1.975 0c0 1.68 1.384 3.045 3.084 3.045 1.701 0 3.086-1.366 3.086-3.045 0-1.679-1.385-3.045-3.086-3.045-1.7 0-3.084 1.366-3.084 3.045zM28.88 29.586c0-2.755 2.27-4.995 5.06-4.995 2.789 0 5.059 2.24 5.059 4.995 0 2.754-2.27 4.995-5.06 4.995-2.79 0-5.059-2.241-5.059-4.995zm1.976 0c0 1.68 1.383 3.046 3.084 3.046 1.7 0 3.084-1.367 3.084-3.046 0-1.68-1.384-3.046-3.084-3.046-1.701 0-3.084 1.367-3.084 3.046zm-15.417 0c0-2.755 2.27-4.995 5.06-4.995 2.79 0 5.06 2.24 5.06 4.995 0 2.754-2.27 4.995-5.06 4.995-2.79 0-5.06-2.241-5.06-4.995zm1.975 0c0 1.68 1.384 3.046 3.084 3.046 1.701 0 3.086-1.367 3.086-3.046 0-1.68-1.385-3.046-3.086-3.046-1.7 0-3.084 1.367-3.084 3.046zM2 29.586c0-2.755 2.27-4.995 5.059-4.995 2.79 0 5.06 2.24 5.06 4.995 0 2.754-2.27 4.995-5.06 4.995-2.79 0-5.06-2.241-5.06-4.995zm1.974 0c0 1.68 1.384 3.046 3.085 3.046 1.7 0 3.084-1.367 3.084-3.046 0-1.68-1.383-3.046-3.084-3.046s-3.085 1.367-3.085 3.046zm24.907-11.337c0-2.754 2.27-4.995 5.06-4.995 2.789 0 5.059 2.241 5.059 4.995 0 2.755-2.27 4.995-5.06 4.995-2.79 0-5.059-2.24-5.059-4.995zm1.976 0c0 1.68 1.383 3.045 3.084 3.045 1.7 0 3.084-1.365 3.084-3.045 0-1.679-1.384-3.045-3.084-3.045-1.701 0-3.084 1.366-3.084 3.045zm-15.417 0c0-2.754 2.27-4.995 5.06-4.995 2.79 0 5.06 2.241 5.06 4.995 0 2.755-2.27 4.995-5.06 4.995-2.79 0-5.06-2.24-5.06-4.995zm1.975 0c0 1.68 1.384 3.045 3.084 3.045 1.701 0 3.086-1.365 3.086-3.045 0-1.679-1.385-3.045-3.086-3.045-1.7 0-3.084 1.366-3.084 3.045zM2 18.249c0-2.754 2.27-4.995 5.059-4.995 2.79 0 5.06 2.241 5.06 4.995 0 2.755-2.27 4.995-5.06 4.995-2.79 0-5.06-2.24-5.06-4.995zm1.974 0c0 1.68 1.384 3.045 3.085 3.045 1.7 0 3.084-1.365 3.084-3.045 0-1.679-1.383-3.045-3.084-3.045s-3.085 1.366-3.085 3.045zM28.881 6.913c0-2.755 2.27-4.995 5.06-4.995C36.73 1.918 39 4.158 39 6.913c0 2.754-2.27 4.995-5.06 4.995-2.79 0-5.059-2.24-5.059-4.995zm1.976 0c0 1.68 1.383 3.046 3.084 3.046 1.7 0 3.084-1.367 3.084-3.046 0-1.68-1.384-3.046-3.084-3.046-1.701 0-3.084 1.367-3.084 3.046zm-15.417 0c0-2.755 2.27-4.995 5.06-4.995 2.79 0 5.06 2.24 5.06 4.995 0 2.754-2.27 4.995-5.06 4.995-2.79 0-5.06-2.24-5.06-4.995zm1.975 0c0 1.68 1.384 3.046 3.084 3.046 1.701 0 3.086-1.367 3.086-3.046 0-1.68-1.385-3.046-3.086-3.046-1.7 0-3.084 1.367-3.084 3.046zM2 6.913c0-2.755 2.27-4.995 5.059-4.995 2.79 0 5.06 2.24 5.06 4.995 0 2.754-2.27 4.995-5.06 4.995-2.79 0-5.06-2.24-5.06-4.995zm1.974 0c0 1.68 1.384 3.046 3.085 3.046 1.7 0 3.084-1.367 3.084-3.046 0-1.68-1.383-3.046-3.084-3.046S3.974 5.234 3.974 6.913z"/></svg><svg viewBox="2 1.998 20 20" id="search-product" xmlns="http://www.w3.org/2000/svg"><path d="M21.45 18.798l-4.588-4.589a8.813 8.813 0 01-2.651 2.651l4.588 4.588a1.874 1.874 0 102.651-2.65zM17 9.498a7.502 7.502 0 00-7.5-7.5 7.502 7.502 0 000 15 7.5 7.5 0 007.5-7.5zm-7.5 5.625A5.63 5.63 0 013.875 9.5 5.632 5.632 0 019.5 3.873a5.632 5.632 0 015.625 5.626A5.63 5.63 0 019.5 15.123zM5.125 9.5h1.25A3.128 3.128 0 019.5 6.374v-1.25a4.38 4.38 0 00-4.375 4.375z"/></svg><svg xmlns:svgjs="http://svgjs.com/svgjs" viewBox="1424 1305 51 51" id="slider-left" xmlns="http://www.w3.org/2000/svg"><svg width="51" height="51" xmlns:svgjs="http://svgjs.com/svgjs" fill="none" stroke-miterlimit="100" stroke="#a3bbc8" stroke-width="2" x="1424" y="1305"><svg width="51" height="51" viewBox="1 2 50 50"><path paint-order="stroke fill markers" d="M6 2h40a5 5 0 015 5v40a5 5 0 01-5 5H6a5 5 0 01-5-5V7a5 5 0 015-5z"/></svg></svg><svg width="23" height="10" xmlns:svgjs="http://svgjs.com/svgjs" viewBox="0 0.296 23 9.409" fill="#a3bbc8" x="1438" y="1326"><svg width="23" height="10" viewBox="2 1.003 22 8.999"><path paint-order="stroke fill markers" fill-rule="evenodd" d="M23.704 4.526l.008.003H6.756l.1-2.859a.29.29 0 000-.41l-.172-.173a.287.287 0 00-.407 0L2.083 5.298a.288.288 0 000 .409L6.276 9.92a.288.288 0 00.204.083.29.29 0 00.204-.083l.172-.174a.285.285 0 000-.404l-.113-2.864h16.965A.3.3 0 0024 6.18V4.81a.293.293 0 00-.296-.285z"/></svg></svg></svg><svg xmlns:svgjs="http://svgjs.com/svgjs" viewBox="1494 1305 51 51" id="slider-right" xmlns="http://www.w3.org/2000/svg"><svg width="51" height="51" xmlns:svgjs="http://svgjs.com/svgjs" fill="none" stroke-miterlimit="100" stroke="#a3bbc8" stroke-width="2" x="1494" y="1305"><svg width="51" height="51" viewBox="1 2 50 50"><path paint-order="stroke fill markers" d="M6 2h40a5 5 0 015 5v40a5 5 0 01-5 5H6a5 5 0 01-5-5V7a5 5 0 015-5z"/></svg></svg><svg width="23" height="10" xmlns:svgjs="http://svgjs.com/svgjs" viewBox="0 0.296 23 9.408" fill="#a3bbc8" x="1508" y="1326"><svg width="23" height="10" viewBox="2 1.997 22 8.999"><path paint-order="stroke fill markers" fill-rule="evenodd" d="M2.296 7.473l-.008-.002h16.956l-.1 2.858a.29.29 0 000 .41l.172.173a.285.285 0 00.204.084.29.29 0 00.204-.083L23.916 6.7a.288.288 0 000-.408L19.724 2.08a.288.288 0 00-.204-.083.29.29 0 00-.204.083l-.172.174a.285.285 0 000 .403l.113 2.865H2.292A.3.3 0 002 5.818v1.37c0 .159.137.285.296.285z"/></svg></svg></svg><svg viewBox="1.361 1.888 14.329 11.612" id="twitter" xmlns="http://www.w3.org/2000/svg"><path d="M15.69 3.277a4.39 4.39 0 01-.332.45 5.57 5.57 0 01-1.072 1.015l-.05.093c.013.433-.007.867-.065 1.3a8.717 8.717 0 01-2.374 4.92 7.9 7.9 0 01-4.049 2.249 9.021 9.021 0 01-1.9.196 8.216 8.216 0 01-4.417-1.266l-.07-.043c.232.024.461.037.689.037a5.95 5.95 0 002.248-.438 5.825 5.825 0 001.4-.817c-1.52-.05-2.465-1.147-2.71-2.035.181.035.363.052.544.052.237 0 .474-.03.712-.085l.044-.022c-.827-.192-1.46-.631-1.894-1.344a2.856 2.856 0 01-.42-1.558c.414.22.841.34 1.302.351-.617-.444-1.029-1.031-1.193-1.777a2.887 2.887 0 01.334-2.123c1.57 1.87 3.57 2.897 6.021 3.066a8.282 8.282 0 00-.047-.323 2.84 2.84 0 01.448-1.914c.472-.735 1.14-1.19 1.996-1.328.182-.03.36-.045.533-.045.768 0 1.446.294 2.028.863.036.032.067.05.108.05a.175.175 0 00.045-.007 5.783 5.783 0 001.71-.652l.04-.022c-.214.68-.64 1.206-1.247 1.596a5.654 5.654 0 001.638-.439z"/></svg><svg viewBox="0 0 448 512" id="user" xmlns="http://www.w3.org/2000/svg"><path d="M313.6 304c-28.7 0-42.5 16-89.6 16-47.1 0-60.8-16-89.6-16C60.2 304 0 364.2 0 438.4V464c0 26.5 21.5 48 48 48h352c26.5 0 48-21.5 48-48v-25.6c0-74.2-60.2-134.4-134.4-134.4zM400 464H48v-25.6c0-47.6 38.8-86.4 86.4-86.4 14.6 0 38.3 16 89.6 16 51.7 0 74.9-16 89.6-16 47.6 0 86.4 38.8 86.4 86.4V464zM224 288c79.5 0 144-64.5 144-144S303.5 0 224 0 80 64.5 80 144s64.5 144 144 144zm0-240c52.9 0 96 43.1 96 96s-43.1 96-96 96-96-43.1-96-96 43.1-96 96-96z"/></svg><svg viewBox="0 0 512 512" id="view-grid" xmlns="http://www.w3.org/2000/svg"><path d="M0 189.797h155.401v133.194H0zM185.398 352.978h133.194v159.021H185.398zM348.589 189.797H512v133.194H348.589zM185.398 189.797h133.194v133.194H185.398zM185.398 0h133.194v159.801H185.398zM155.402 352.982H0v102.131C0 486.48 25.519 512 56.887 512h98.516V352.982h-.001zM455.113 0H348.585v159.799H512V56.887C512 25.519 486.48 0 455.113 0zM348.586 352.982v159.017h106.527c31.367 0 56.887-25.519 56.887-56.887v-102.13H348.586zM56.887 0C25.519 0 0 25.519 0 56.887V159.8h155.402V0H56.887z"/></svg><svg viewBox="0 0 612 612" id="view-list" xmlns="http://www.w3.org/2000/svg"><path d="M63.311 73.862C28.342 73.862 0 102.204 0 137.172s28.342 63.311 63.311 63.311c34.968 0 63.31-28.342 63.31-63.311s-28.342-63.31-63.31-63.31zm0 168.827C28.342 242.689 0 271.032 0 306c0 34.969 28.342 63.311 63.311 63.311 34.968 0 63.31-28.342 63.31-63.311 0-34.968-28.342-63.311-63.31-63.311zm0 168.829C28.342 411.518 0 439.859 0 474.827c0 34.969 28.342 63.311 63.311 63.311 34.968 0 63.31-28.342 63.31-63.311 0-34.968-28.342-63.309-63.31-63.309zm168.827-232.139h337.655c23.319 0 42.207-18.888 42.207-42.207s-18.888-42.207-42.207-42.207H232.138c-23.319 0-42.207 18.888-42.207 42.207s18.888 42.207 42.207 42.207zm337.655 84.414H232.138c-23.319 0-42.207 18.888-42.207 42.207s18.888 42.207 42.207 42.207h337.655C593.112 348.207 612 329.319 612 306s-18.888-42.207-42.207-42.207zm0 168.828H232.138c-23.319 0-42.207 18.887-42.207 42.206s18.888 42.207 42.207 42.207h337.655c23.319 0 42.207-18.888 42.207-42.207s-18.888-42.206-42.207-42.206z"/></svg></svg>