<svg width="23" height="10" xmlns="http://www.w3.org/2000/svg" xmlns:xlink="http://www.w3.org/1999/xlink" xmlns:svgjs="http://svgjs.com/svgjs" viewBox="0 0.295 23 9.41" fill="#fff"><svg xmlns="http://www.w3.org/2000/svg" width="23" height="10" viewBox="2 1.996 22 9.001"><path paint-order="stroke fill markers" fill-rule="evenodd" d="M2.296 7.472h-.008 16.956l-.1 2.857a.287.287 0 0 0-.084.205c0 .077.03.15.084.205l.172.172a.286.286 0 0 0 .407.002l4.193-4.211a.289.289 0 0 0 0-.41L19.723 2.08a.29.29 0 0 0-.407 0l-.172.173a.288.288 0 0 0 0 .405l.113 2.865H2.292A.298.298 0 0 0 2 5.818v1.37c0 .159.137.284.296.284z"/></svg></svg>