<svg id="form-comment" xmlns="http://www.w3.org/2000/svg" viewBox="2 1.191 18 14.809"><path fill="#436372" d="M5 16a.446.446 0 0 1-.164-.031.411.411 0 0 1-.265-.38v-2.07H3.286c-.71 0-1.286-.554-1.286-1.234V2.424c0-.68.577-1.233 1.286-1.233h15.428c.709 0 1.286.553 1.286 1.233v9.861c0 .68-.577 1.233-1.286 1.233H7.766L5.303 15.88A.438.438 0 0 1 5 16zM3.286 2.013a.42.42 0 0 0-.429.41v9.862c0 .227.192.411.429.411H5a.42.42 0 0 1 .428.411v1.49l1.857-1.78c.08-.077.19-.12.303-.12h11.126a.42.42 0 0 0 .429-.412V2.424a.42.42 0 0 0-.429-.411H3.286zm4.771 5.342a.63.63 0 0 1-.643.616.63.63 0 0 1-.642-.616.63.63 0 0 1 .642-.617.63.63 0 0 1 .643.617zm3.586 0A.63.63 0 0 1 11 7.97a.63.63 0 0 1-.643-.616.63.63 0 0 1 .643-.617.63.63 0 0 1 .643.617zm3.343 0a.63.63 0 0 1-.643.616.63.63 0 0 1-.643-.616.63.63 0 0 1 .643-.617.63.63 0 0 1 .643.617z"/></svg>