<svg id="form-user" xmlns="http://www.w3.org/2000/svg" viewBox="1.121 1.003 13.688 13.163"><path fill="#436372" d="M14.382 14.166H1.55a.42.42 0 0 1-.428-.411c0-3.63 3.07-6.582 6.845-6.582 3.774 0 6.844 2.953 6.844 6.582a.42.42 0 0 1-.428.411zm-12.39-.823H13.94c-.22-2.984-2.815-5.347-5.973-5.347-3.159 0-5.754 2.363-5.974 5.347zm5.974-5.347c-2.005 0-3.636-1.569-3.636-3.497s1.63-3.496 3.636-3.496c2.004 0 3.636 1.568 3.636 3.496S9.97 7.996 7.966 7.996zm0-6.17c-1.533 0-2.78 1.199-2.78 2.673 0 1.475 1.247 2.674 2.78 2.674 1.533 0 2.78-1.2 2.78-2.674s-1.247-2.673-2.78-2.673z"/></svg>