<svg id="form-mail" xmlns="http://www.w3.org/2000/svg" viewBox="2 1.621 18 12.373"><path fill="#436372" d="M18.714 13.994H3.286c-.71 0-1.286-.555-1.286-1.237V2.858c0-.682.577-1.237 1.286-1.237h15.428c.709 0 1.286.555 1.286 1.237v9.899c0 .682-.577 1.237-1.286 1.237zM3.286 2.446a.421.421 0 0 0-.429.412v9.899c0 .227.192.412.429.412h15.428a.421.421 0 0 0 .429-.412V2.858a.421.421 0 0 0-.429-.412H3.286zM11 8.036c-.259 0-.517-.073-.737-.222L2.48 2.572a.403.403 0 0 1-.106-.574.44.44 0 0 1 .597-.102l7.782 5.242c.147.1.345.1.492 0l7.782-5.242a.44.44 0 0 1 .596.102.403.403 0 0 1-.105.574l-7.782 5.242c-.22.149-.479.223-.737.223zm8.32 5.716c-.11 0-.22-.04-.303-.12l-6.613-6.364a.402.402 0 0 1 0-.584.44.44 0 0 1 .606 0l6.613 6.364a.402.402 0 0 1 0 .583.436.436 0 0 1-.303.121zm-16.64 0c-.11 0-.22-.04-.303-.12a.401.401 0 0 1 0-.584l6.612-6.364a.44.44 0 0 1 .607 0 .402.402 0 0 1 0 .584L2.983 13.63a.436.436 0 0 1-.303.121z"/></svg>