<svg>

  <symbol id="heart" xmlns="http://www.w3.org/2000/svg" width="19" height="18" viewBox="1.983 1.721 17.859 15.523"><path d="M10.913 17.244a.707.707 0 0 1-.28-.056c-.353-.15-8.65-3.75-8.65-10.76.091-2.65 2.207-4.707 4.818-4.707 1.743 0 3.266.918 4.112 2.31a4.796 4.796 0 0 1 4.112-2.31c2.61 0 4.725 2.058 4.817 4.684 0 7.034-8.297 10.634-8.65 10.783a.71.71 0 0 1-.28.056zM6.8 3.106c-1.847 0-3.343 1.47-3.408 3.346 0 5.408 6.125 8.663 7.52 9.335 1.395-.672 7.52-3.93 7.52-9.358-.065-1.853-1.563-3.323-3.408-3.323s-3.342 1.47-3.408 3.346a.7.7 0 0 1-.704.67.7.7 0 0 1-.705-.67c-.064-1.876-1.561-3.346-3.407-3.346z"/>
  </symbol>

  <symbol id="cart" xmlns="http://www.w3.org/2000/svg" width="20" height="18" viewBox="2 1.998 18.956 16.98"><path d="M7.526 18.978c-.536 0-1.063-.21-1.461-.607a2.066 2.066 0 0 1-.453-2.26 2.068 2.068 0 0 1 1.915-1.28h.006c.55 0 1.07.214 1.46.602.393.394.609.913.609 1.467.002.84-.5 1.593-1.277 1.917-.258.108-.53.16-.799.16zm.007-2.963h-.004a.887.887 0 0 0-.628 1.518.89.89 0 1 0 .632-1.518zm8.385 2.963c-.537 0-1.064-.21-1.461-.607a2.065 2.065 0 0 1-.452-2.26 2.065 2.065 0 0 1 1.913-1.28c.546-.04 1.08.218 1.468.603.392.393.607.912.607 1.466a2.064 2.064 0 0 1-1.274 1.917c-.26.108-.532.16-.8.16zm.006-2.963h-.001c-.331.032-.685.215-.823.548a.89.89 0 1 0 .824-.548zm-11.279.163a.592.592 0 0 1-.536-.843c.579-1.24 1.627-1.973 3.054-2.15L6.108 7.792a.593.593 0 0 1 1.163-.227l1.091 5.578h9.423l1.807-6.771H6.29A4.354 4.354 0 0 1 2.007 2.68a.591.591 0 1 1 1.171-.175 3.165 3.165 0 0 0 3.115 2.682h14.07a.592.592 0 0 1 .573.745l-2.123 7.956a.594.594 0 0 1-.573.44H7.885a.044.044 0 0 0-.023 0c-1.33 0-2.205.493-2.68 1.51a.593.593 0 0 1-.537.34z"/></symbol>

  <symbol id="arrow-right" xmlns="http://www.w3.org/2000/svg" width="23" height="10" viewBox="2 1.996 22 9.001"><path d="M2.296 7.472h-.008 16.956l-.1 2.857a.287.287 0 0 0-.084.205c0 .077.03.15.084.205l.172.172a.286.286 0 0 0 .407.002l4.193-4.211a.289.289 0 0 0 0-.41L19.723 2.08a.29.29 0 0 0-.407 0l-.172.173a.288.288 0 0 0 0 .405l.113 2.865H2.292A.298.298 0 0 0 2 5.818v1.37c0 .159.137.284.296.284z"/>
  </symbol>

  <symbol id="search-product" xmlns="http://www.w3.org/2000/svg" width="21" height="21" viewBox="2 1.998 20 20"><path d="M21.45 18.798l-4.588-4.589a8.813 8.813 0 0 1-2.651 2.651l4.588 4.588a1.874 1.874 0 1 0 2.651-2.65zM17 9.498a7.502 7.502 0 0 0-7.5-7.5 7.502 7.502 0 0 0 0 15 7.5 7.5 0 0 0 7.5-7.5zm-7.5 5.625A5.63 5.63 0 0 1 3.875 9.5 5.632 5.632 0 0 1 9.5 3.873a5.632 5.632 0 0 1 5.625 5.626A5.63 5.63 0 0 1 9.5 15.123zM5.125 9.5h1.25A3.128 3.128 0 0 1 9.5 6.374v-1.25a4.38 4.38 0 0 0-4.375 4.375z"/>
  </symbol>

  <symbol id="cart-product" xmlns="http://www.w3.org/2000/svg" width="23" height="21" viewBox="2 1.998 22 20.001"><path d="M2.814 3.629h2.333L8.47 15.667c.095.353.42.597.787.597h10.214c.326 0 .61-.19.746-.488l3.717-8.56a.828.828 0 0 0-.068-.776.81.81 0 0 0-.678-.366H11.902a.817.817 0 0 0 0 1.631H21.94l-3.011 6.929H9.867L6.544 2.596a.815.815 0 0 0-.787-.598H2.814A.817.817 0 0 0 2 2.814c0 .448.366.815.814.815zm5.67 18.37a1.848 1.848 0 0 0 0-3.696 1.848 1.848 0 0 0 0 3.696zm11.53 0h.135c.489-.041.936-.259 1.262-.64a1.85 1.85 0 0 0-1.52-3.057 1.85 1.85 0 0 0-1.708 1.971 1.85 1.85 0 0 0 1.83 1.726z"/>
  </symbol>

  <symbol id="heart-product" xmlns="http://www.w3.org/2000/svg" width="23" height="19" viewBox="2 1.999 22 18"><path d="M23.99 7.82a6.21 6.21 0 0 0-1.849-4.1c-1.125-1.11-2.596-1.721-4.139-1.721-2.311 0-3.948 1.785-4.827 2.745l-.156.17-.083-.095C12.132 3.903 10.46 2 7.998 2c-1.543 0-3.013.61-4.139 1.72A6.21 6.21 0 0 0 2.01 7.82c-.082 1.541.31 2.88 1.27 4.338.862 1.308 3.105 3.374 4.764 4.748 1.705 1.41 3.95 3.093 4.965 3.093 1.032 0 3.27-1.68 4.965-3.087 1.646-1.367 3.876-3.432 4.746-4.754.646-.984 1.375-2.366 1.27-4.338zm-2.376 3.61c-.632.961-2.412 2.736-4.43 4.418-2.407 2.004-3.832 2.795-4.173 2.826-.342-.035-1.77-.833-4.188-2.843-2.03-1.686-3.813-3.454-4.437-4.402-.795-1.206-1.12-2.297-1.054-3.538.135-2.519 2.228-4.57 4.666-4.57 1.863 0 3.216 1.543 3.943 2.371.428.488.663.755 1.06.755.408 0 .671-.286 1.15-.81.794-.865 2.122-2.315 3.851-2.315 2.438 0 4.531 2.05 4.666 4.57.067 1.253-.248 2.312-1.054 3.538z"/>
  </symbol>

  <symbol id="arrow-angle" xmlns="http://www.w3.org/2000/svg" width="8" height="13" viewBox="1.767 1.709 6.113 10.977">
    <path d="M2.333 12.687c-.15 0-.3-.061-.41-.183a.6.6 0 0 1 .021-.831l4.547-4.475-4.547-4.474a.596.596 0 0 1-.177-.427c0-.145.052-.29.155-.404a.551.551 0 0 1 .8-.023L7.7 6.768l.014.014a.563.563 0 0 1 .113.169h.001a.61.61 0 0 1 .052.244v.003c0 .086-.018.17-.053.25v.001a.602.602 0 0 1-.112.165l-.015.014-4.977 4.899a.55.55 0 0 1-.39.16z"/>
  </symbol>

</svg>