<svg width="23" height="21" xmlns="http://www.w3.org/2000/svg" xmlns:xlink="http://www.w3.org/1999/xlink" xmlns:svgjs="http://svgjs.com/svgjs" viewBox="0 0.045 23 20.91" fill="#fff"><svg xmlns="http://www.w3.org/2000/svg" width="23" height="21" viewBox="2 1.998 22 20.001"><path paint-order="stroke fill markers" fill-rule="evenodd" d="M2.814 3.629h2.333L8.47 15.667c.095.353.42.597.787.597h10.214c.326 0 .61-.19.746-.488l3.717-8.56a.828.828 0 0 0-.068-.776.81.81 0 0 0-.678-.366H11.902a.817.817 0 0 0 0 1.631H21.94l-3.011 6.929H9.867L6.544 2.596a.815.815 0 0 0-.787-.598H2.814A.817.817 0 0 0 2 2.814c0 .448.366.815.814.815zm5.67 18.37a1.848 1.848 0 0 0 0-3.696 1.848 1.848 0 0 0 0 3.696zm11.53 0h.135c.489-.041.936-.259 1.262-.64a1.85 1.85 0 0 0-1.52-3.057 1.85 1.85 0 0 0-1.708 1.971 1.85 1.85 0 0 0 1.83 1.726z"/></svg></svg>